<?xml version="1.0" encoding="UTF-8"?>
<svg width="26px" height="16px" viewBox="0 0 26 16" version="1.1" xmlns="http://www.w3.org/2000/svg" xmlns:xlink="http://www.w3.org/1999/xlink">
    <!-- Generator: Sketch 53.2 (72643) - https://sketchapp.com -->
    <title>Group 2</title>
    <desc>Created with Sketch.</desc>
    <g id="Page-1" stroke="none" stroke-width="1" fill="none" fill-rule="evenodd">
        <g id="main" transform="translate(-216.000000, -161.000000)" fill="#3CB7FF">
            <g id="Group-2" transform="translate(216.000000, 160.732051)">
                <rect id="Rectangle-Copy-10" x="0" y="6.26794919" width="26" height="4" rx="2"></rect>
                <path d="M1.19615242,3 L12.1961524,3 C13.3007219,3 14.1961524,3.8954305 14.1961524,5 L14.1961524,5 C14.1961524,6.1045695 13.3007219,7 12.1961524,7 L1.19615242,7 L1.19615242,3 Z" id="Rectangle-Copy-11" transform="translate(7.696152, 5.000000) rotate(-30.000000) translate(-7.696152, -5.000000) "></path>
                <path d="M1.19615242,9.55 L12.1961524,9.55 C13.3007219,9.55 14.1961524,10.4454305 14.1961524,11.55 L14.1961524,11.55 C14.1961524,12.6545695 13.3007219,13.55 12.1961524,13.55 L1.19615242,13.55 L1.19615242,9.55 Z" id="Rectangle-Copy-12" transform="translate(7.696152, 11.550000) scale(1, -1) rotate(-30.000000) translate(-7.696152, -11.550000) "></path>
            </g>
        </g>
    </g>
</svg>