<?xml version="1.0" encoding="UTF-8"?>
<svg width="85px" height="29px" viewBox="0 0 85 29" version="1.1" xmlns="http://www.w3.org/2000/svg" xmlns:xlink="http://www.w3.org/1999/xlink">
    <!-- Generator: Sketch 53.2 (72643) - https://sketchapp.com -->
    <title>Group 17</title>
    <desc>Created with Sketch.</desc>
    <g id="Page-1" stroke="none" stroke-width="1" fill="none" fill-rule="evenodd" stroke-linecap="round" stroke-linejoin="round">
        <g id="main" transform="translate(-42.000000, -154.000000)" stroke="#3CB7FF" stroke-width="4">
            <g id="Group-17" transform="translate(44.000000, 156.000000)">
                <path d="M16.5,-3.55271368e-15 C20.5,-3.55271368e-15 20.5,4 20.5,4 C20.5,10 14.5,12 14.5,12 C18,13.5 18,17.5 18,17.5 C18,25.5 8,24.5 8,24.5 L0,24.5 L8.5,-3.55271368e-15 L16.5,-3.55271368e-15 Z" id="Stroke-1"></path>
                <path d="M32.1143,1.1119 L32.5003,-0.0001" id="Stroke-3"></path>
                <path d="M38,11.5 C38,11.5 40,9.5 43,9.5 C46,9.5 46,13.5 46,13.5 L44,20.5 C44,20.5 43,24.5 39,24.5 C35,24.5 35,19.5 35,19.5" id="Stroke-5"></path>
                <path d="M54.6787,14.2764 C54.6787,14.2764 54.9997,17.5004 58.9997,17.5004 C62.9997,17.5004 62.9997,12.5004 62.9997,12.5004 C62.9997,12.5004 61.9997,6.5004 55.9997,10.5004 L52.9997,19.5004 C52.9997,19.5004 52.9997,24.5004 59.9997,24.5004 C67.9997,24.5004 70.0027,14.1574 71.9997,8.5004" id="Stroke-7"></path>
                <path d="M6.3525,24.5401 C6.3525,24.5401 23.0095,26.7611 26.0045,18.6311 C28.9995,10.5001 29.9995,7.5001 29.9995,7.5001" id="Stroke-9"></path>
                <path d="M26.1953,18.1133 C26.1953,18.1133 24.0003,23.5003 28.0003,24.5003 C31.0003,25.5003 34.0003,22.5003 35.0003,19.5003 C36.0003,16.5003 42.0003,0.5003 42.0003,0.5003" id="Stroke-11"></path>
                <path d="M44,20.5 C44,20.5 43,23.5 47,24.5 C50,25.5 52,22.5 53,19.5" id="Stroke-13"></path>
                <path d="M68.6729,17.8125 C68.6729,17.8125 73.9999,9.4995 80.9999,9.4995" id="Stroke-15"></path>
            </g>
        </g>
    </g>
</svg>